<svg width="35" height="16" viewBox="0 0 35 16" fill="none" xmlns="http://www.w3.org/2000/svg">
<path d="M34.4997 7.63457C34.1958 7.35233 26.9548 0.723755 17.7069 0.723755C8.45893 0.723755 1.21768 7.35233 0.914108 7.6343C0.626287 7.90206 0.626287 8.26522 0.914108 8.53298C1.21768 8.81522 8.45893 15.4438 17.7069 15.4438C26.9548 15.4438 34.1958 8.81518 34.4997 8.53321C34.7879 8.26549 34.7879 7.90206 34.4997 7.63457ZM17.7069 13.921C10.8948 13.921 4.99477 9.52152 3.24824 8.08326C4.99251 6.64373 10.8802 2.24651 17.7069 2.24651C24.5187 2.24651 30.4183 6.64526 32.1655 8.08429C30.4213 9.52378 24.5336 13.921 17.7069 13.921Z" fill="#8E8E8E"/>
</svg>
